<svg width="152" height="40" viewBox="0 0 152 40" fill="none" xmlns="http://www.w3.org/2000/svg">
<rect width="151" height="40.0005" transform="translate(0.499756)" fill="#122FC4"/>
<path d="M27.4613 14.6416L19.4612 3.96143V35.9618L27.4613 25.2817V14.6416Z" fill="#E2E8F0"/>
<path d="M43.4613 14.6416L51.4614 3.96143V35.9618L43.4613 25.2817V14.6416Z" fill="#171717"/>
<path d="M27.4612 14.6416V3.96143L51.4615 35.9618H43.4614L27.4612 14.6416Z" fill="#171717"/>
<path d="M27.4612 25.2818V35.9619L51.4615 3.96152H43.4614L27.4612 25.2818Z" fill="#E2E8F0"/>
<path d="M76.0042 28H73.2682L65.0362 15.544V28H62.3002V11.296H65.0362L73.2682 23.728V11.296H76.0042V28ZM92.4371 21.064C92.4371 21.56 92.4051 22.008 92.3411 22.408H82.2371C82.3171 23.464 82.7091 24.312 83.4131 24.952C84.1171 25.592 84.9811 25.912 86.0051 25.912C87.4771 25.912 88.5171 25.296 89.1251 24.064H92.0771C91.6771 25.28 90.9491 26.28 89.8931 27.064C88.8531 27.832 87.5571 28.216 86.0051 28.216C84.7411 28.216 83.6051 27.936 82.5971 27.376C81.6051 26.8 80.8211 26 80.2451 24.976C79.6851 23.936 79.4051 22.736 79.4051 21.376C79.4051 20.016 79.6771 18.824 80.2211 17.8C80.7811 16.76 81.5571 15.96 82.5491 15.4C83.5571 14.84 84.7091 14.56 86.0051 14.56C87.2531 14.56 88.3651 14.832 89.3411 15.376C90.3171 15.92 91.0771 16.688 91.6211 17.68C92.1651 18.656 92.4371 19.784 92.4371 21.064ZM89.5811 20.2C89.5651 19.192 89.2051 18.384 88.5011 17.776C87.7971 17.168 86.9251 16.864 85.8851 16.864C84.9411 16.864 84.1331 17.168 83.4611 17.776C82.7891 18.368 82.3891 19.176 82.2611 20.2H89.5811ZM101.514 21.304L105.786 28H102.69L99.8336 23.512L97.1456 28H94.2896L98.5616 21.496L94.2896 14.776H97.3856L100.242 19.264L102.93 14.776H105.786L101.514 21.304ZM120.522 14.776V28H117.786V26.44C117.354 26.984 116.786 27.416 116.082 27.736C115.394 28.04 114.658 28.192 113.874 28.192C112.834 28.192 111.898 27.976 111.066 27.544C110.25 27.112 109.602 26.472 109.122 25.624C108.658 24.776 108.426 23.752 108.426 22.552V14.776H111.138V22.144C111.138 23.328 111.434 24.24 112.026 24.88C112.618 25.504 113.426 25.816 114.45 25.816C115.474 25.816 116.282 25.504 116.874 24.88C117.482 24.24 117.786 23.328 117.786 22.144V14.776H120.522ZM129.652 28.216C128.612 28.216 127.676 28.032 126.844 27.664C126.028 27.28 125.38 26.768 124.9 26.128C124.42 25.472 124.164 24.744 124.132 23.944H126.964C127.012 24.504 127.276 24.976 127.756 25.36C128.252 25.728 128.868 25.912 129.604 25.912C130.372 25.912 130.964 25.768 131.38 25.48C131.812 25.176 132.028 24.792 132.028 24.328C132.028 23.832 131.788 23.464 131.308 23.224C130.844 22.984 130.1 22.72 129.076 22.432C128.084 22.16 127.276 21.896 126.652 21.64C126.028 21.384 125.484 20.992 125.02 20.464C124.572 19.936 124.348 19.24 124.348 18.376C124.348 17.672 124.556 17.032 124.972 16.456C125.388 15.864 125.98 15.4 126.748 15.064C127.532 14.728 128.428 14.56 129.436 14.56C130.94 14.56 132.148 14.944 133.06 15.712C133.988 16.464 134.484 17.496 134.548 18.808H131.812C131.764 18.216 131.524 17.744 131.092 17.392C130.66 17.04 130.076 16.864 129.34 16.864C128.62 16.864 128.068 17 127.684 17.272C127.3 17.544 127.108 17.904 127.108 18.352C127.108 18.704 127.236 19 127.492 19.24C127.748 19.48 128.06 19.672 128.428 19.816C128.796 19.944 129.34 20.112 130.06 20.32C131.02 20.576 131.804 20.84 132.412 21.112C133.036 21.368 133.572 21.752 134.02 22.264C134.468 22.776 134.7 23.456 134.716 24.304C134.716 25.056 134.508 25.728 134.092 26.32C133.676 26.912 133.084 27.376 132.316 27.712C131.564 28.048 130.676 28.216 129.652 28.216Z" fill="#E2E8F0"/>
</svg>
